Patient4_TMGait_0pt2_03_right_07_GRF.mot
version=1
nRows=58
nColumns=19
inDegrees=no
endheader
time	F1x	F1y	F1z	M1x	M1y	M1z	F2x	F2y	F2z	M2x	M2y	M2z	EC1x	EC1y	EC1z	EC2x	EC2y	EC2z
14.84	3.4011	743.5777	53.6633	-258.0434	-53.5996	769.6445	-0.16808	27.7742	-3.1543	10.0996	2.5617	27.4698	-0.0592	0.0182	-0.0073	-0.0462	0.0165	0.9585
14.8619	0.94686	757.9505	56.5886	-262.9089	-56.9373	784.0292	-0.28149	22.9291	-2.7336	8.3027	2.3921	22.5756	-0.0592	0.0182	-0.0073	-0.0462	0.0165	0.9585
14.8839	-1.7978	775.6686	59.9272	-268.9126	-60.7689	801.6189	-0.43568	17.775	-2.1869	6.4059	2.0776	17.4309	-0.0592	0.0182	-0.0073	-0.0462	0.0165	0.9585
14.9058	-4.7249	796.1391	63.4583	-275.8634	-64.8382	821.759	-0.53234	12.9058	-1.6036	4.6227	1.6621	12.6143	-0.0592	0.0182	-0.0073	-0.0462	0.0165	0.9585
14.9277	-7.6633	818.5166	66.9556	-283.4827	-68.8446	843.5091	-0.52785	8.7874	-1.0796	3.1193	1.2241	8.5643	-0.0592	0.0182	-0.0073	-0.0462	0.0165	0.9585
14.9496	-10.3439	841.5018	70.2054	-291.33	-72.464	865.4414	-0.46311	5.6415	-0.66606	1.9737	0.83633	5.4807	-0.0592	0.0182	-0.0073	-0.0462	0.0165	0.9585
14.9716	-12.4289	863.026	73.0251	-298.6925	-75.388	885.3529	-0.37847	3.4408	-0.37124	1.1748	0.53244	3.3261	-0.0592	0.0182	-0.0073	-0.0462	0.0165	0.9585
14.9935	-13.5902	880.2161	75.2402	-304.5779	-77.3332	900.2634	-0.29796	2.0024	-0.18162	0.65671	0.31836	1.9128	-0.0592	0.0182	-0.0073	-0.0462	0.0165	0.9585
15.0154	-13.5693	889.9114	76.6562	-307.8993	-78.0329	906.9583	-0.23384	1.071	-0.074294	0.3289	0.18345	0.98178	-0.0592	0.0182	-0.0073	-0.0462	0.0165	0.9585
15.0374	-12.2289	889.5752	77.0645	-307.7974	-77.2517	902.9188	-0.18958	0.37468	-0.022807	0.094574	0.10634	0.25823	-0.0592	0.0182	-0.0073	-0.0462	0.0165	0.9585
15.0593	-9.5697	878.1352	76.2961	-303.927	-74.8417	887.1495	-0.15933	-0.33749	-0.00052984	-0.1368	0.060972	-0.5098	-0.0592	0.0182	-0.0073	-0.0462	0.0165	0.9585
15.0812	-5.7278	856.4059	74.3086	-296.5897	-70.8247	860.5824	-0.12898	-1.2716	0.016847	-0.43981	0.020187	-1.5276	-0.0592	0.0182	-0.0073	-0.0462	0.0165	0.9585
15.1031	-0.94302	827.0164	71.2416	-286.703	-65.4358	825.9799	-0.078214	-2.563	0.048407	-0.86418	-0.044432	-2.9279	-0.0592	0.0182	-0.0073	-0.0462	0.0165	0.9585
15.1251	4.4928	793.9059	67.4074	-275.6268	-59.0932	787.3987	0.017404	-4.2387	0.1066	-1.4228	-0.15478	-4.7298	-0.0592	0.0182	-0.0073	-0.0462	0.0165	0.9585
15.147	10.2689	761.4931	63.2376	-264.8786	-52.3354	749.3459	0.1834	-6.1726	0.19773	-2.0774	-0.32311	-6.7839	-0.0592	0.0182	-0.0073	-0.0462	0.0165	0.9585
15.1689	16.059	733.7106	59.2086	-255.7988	-45.7439	715.8184	0.43963	-8.0223	0.31566	-2.7166	-0.54589	-8.702	-0.0592	0.0182	-0.0073	-0.0462	0.0165	0.9585
15.1909	21.5589	713.2032	55.7447	-249.278	-39.8377	689.524	0.79249	-9.1593	0.43677	-3.1316	-0.79564	-9.7921	-0.0592	0.0182	-0.0073	-0.0462	0.0165	0.9585
15.2128	26.5254	700.8107	53.1497	-245.5744	-34.9995	671.3927	1.2271	-8.6026	0.51974	-2.9942	-1.0156	-8.9864	-0.0592	0.0182	-0.0073	-0.0462	0.0165	0.9585
15.2347	30.7766	695.4415	51.5771	-244.2696	-31.4469	660.4765	1.6958	-4.984	0.50105	-1.8432	-1.1107	-4.7989	-0.0592	0.0182	-0.0073	-0.0462	0.0165	0.9585
15.2566	34.169	694.3566	51.0117	-244.3707	-29.2246	654.2619	2.1007	3.4196	0.2901	0.90728	-0.93779	4.6267	-0.0592	0.0182	-0.0073	-0.0462	0.0165	0.9585
15.2786	36.5901	693.7582	51.2672	-244.5184	-28.21	649.2508	2.2755	18.547	-0.2254	5.9223	-0.30661	21.3512	-0.0592	0.0182	-0.0073	-0.0462	0.0165	0.9585
15.3005	37.9411	689.5412	52.0034	-243.2522	-28.1369	641.6807	1.975	42.2299	-1.1687	13.8391	1.0101	47.281	-0.0592	0.0182	-0.0073	-0.0462	0.0165	0.9585
15.3224	38.1118	678.0241	52.7527	-239.2732	-28.6316	628.2146	0.87459	75.6279	-2.6549	25.0792	3.2501	83.5454	-0.0592	0.0182	-0.0073	-0.0462	0.0165	0.9585
15.3444	36.9932	656.5992	52.9867	-231.6736	-29.2692	606.5318	-1.3141	118.5729	-4.7543	39.6238	6.578	129.7912	-0.0592	0.0182	-0.0073	-0.0462	0.0165	0.9585
15.3663	34.5591	624.2398	52.2261	-220.1116	-29.6379	575.7457	-4.5968	169.1702	-7.5473	56.8556	11.0573	183.7767	-0.0592	0.0182	-0.0073	-0.0462	0.0165	0.9585
15.3882	30.9863	581.7605	50.1881	-204.8896	-29.4251	536.5743	-8.5059	224.0917	-11.0131	75.6553	16.4634	241.7363	-0.0592	0.0182	-0.0073	-0.0462	0.0165	0.9585
15.4101	26.7143	531.7858	46.8985	-186.9407	-28.4911	491.2814	-12.414	279.9218	-14.9365	94.8701	22.3159	299.8965	-0.0592	0.0182	-0.0073	-0.0462	0.0165	0.9585
15.4321	22.3426	478.1253	42.675	-167.6155	-26.8839	443.1278	-15.7833	334.4577	-18.9545	113.7566	28.0318	355.902	-0.0592	0.0182	-0.0073	-0.0462	0.0165	0.9585
15.454	18.4216	424.7026	37.965	-148.3156	-24.7666	395.4527	-18.2716	386.5421	-22.6955	131.9132	33.0979	408.6285	-0.0592	0.0182	-0.0073	-0.0462	0.0165	0.9585
15.4759	15.3021	374.6321	33.1598	-130.1771	-22.311	350.8853	-19.7967	435.1655	-25.8918	148.962	37.1988	457.2142	-0.0592	0.0182	-0.0073	-0.0462	0.0165	0.9585
15.4979	13.1244	329.7763	28.5221	-113.9087	-19.6471	310.9554	-20.5243	479.1376	-28.4358	164.4377	40.2738	500.6773	-0.0592	0.0182	-0.0073	-0.0462	0.0165	0.9585
15.5198	11.8794	290.6539	24.2149	-99.7437	-16.8729	275.9983	-20.7573	517.5221	-30.3653	177.9502	42.4643	538.2953	-0.0592	0.0182	-0.0073	-0.0462	0.0165	0.9585
15.5417	11.4539	256.6158	20.352	-87.4881	-14.0923	245.3202	-20.7592	550.1894	-31.8047	189.3935	43.9934	570.0994	-0.0592	0.0182	-0.0073	-0.0462	0.0165	0.9585
15.5636	11.6584	226.2286	17.0039	-76.6539	-11.4178	217.5615	-20.6607	577.9762	-32.9207	199.012	45.0851	597.0063	-0.0592	0.0182	-0.0073	-0.0462	0.0165	0.9585
15.5856	12.252	197.7299	14.1418	-66.6273	-8.9121	191.1057	-20.4941	602.4473	-33.8883	207.3221	45.9415	620.5892	-0.0592	0.0182	-0.0073	-0.0462	0.0165	0.9585
15.6075	12.991	169.573	11.6356	-56.8654	-6.56	164.5678	-20.2502	625.4205	-34.8725	214.9473	46.7414	642.6288	-0.0592	0.0182	-0.0073	-0.0462	0.0165	0.9585
15.6294	13.6306	140.9567	9.3389	-47.0759	-4.3375	137.2744	-19.9005	648.4488	-35.9819	222.442	47.6051	664.62	-0.0592	0.0182	-0.0073	-0.0462	0.0165	0.9585
15.6514	13.9094	112.133	7.1811	-37.3165	-2.294	109.5485	-19.425	672.3836	-37.2092	230.1389	48.5388	687.3687	-0.0592	0.0182	-0.0073	-0.0462	0.0165	0.9585
15.6733	13.5735	84.316	5.2	-27.9654	-0.57255	82.6287	-18.8296	697.0438	-38.4373	238.0238	49.441	710.6763	-0.0592	0.0182	-0.0073	-0.0462	0.0165	0.9585
15.6952	12.453	59.1185	3.4903	-19.5386	0.66337	58.1315	-18.1275	721.1201	-39.5214	245.6856	50.1733	733.2459	-0.0592	0.0182	-0.0073	-0.0462	0.0165	0.9585
15.7171	10.5436	37.8744	2.121	-12.4652	1.3359	37.3976	-17.3189	742.5079	-40.3689	252.4153	50.6303	753.0115	-0.0592	0.0182	-0.0073	-0.0462	0.0165	0.9585
15.7391	8.0902	21.2848	1.1052	-6.9653	1.5059	21.1475	-16.4045	758.9902	-40.989	257.4344	50.7945	767.8223	-0.0592	0.0182	-0.0073	-0.0462	0.0165	0.9585
15.761	5.5329	9.3812	0.41529	-3.0366	1.3389	9.4406	-15.3933	768.8851	-41.4905	260.1235	50.7448	776.0851	-0.0592	0.0182	-0.0073	-0.0462	0.0165	0.9585
15.7829	3.2573	1.6545	-3.9597e-06	-0.49952	1.0071	1.7986	-14.2621	771.3981	-42.0301	260.1583	50.6007	777.096	-0.0592	0.0182	-0.0073	-0.0462	0.0165	0.9585
15.8049	1.4558	-2.7361	-0.20732	0.93072	0.63358	-2.5839	-12.9795	766.7537	-42.7347	257.5761	50.4592	771.1593	-0.0592	0.0182	-0.0073	-0.0462	0.0165	0.9585
15.8268	0.16573	-4.7096	-0.27392	1.5628	0.28991	-4.597	-11.5825	756.2895	-43.6354	252.8272	50.3643	759.6898	-0.0592	0.0182	-0.0073	-0.0462	0.0165	0.9585
15.8487	-0.667	-5.1009	-0.25841	1.6764	0.011572	-5.0532	-10.2139	742.3803	-44.6445	246.7591	50.2976	745.1131	-0.0592	0.0182	-0.0073	-0.0462	0.0165	0.9585
15.8706	-1.1369	-4.5813	-0.20332	1.4955	-0.19253	-4.6037	-9.0603	728.1345	-45.5508	240.5157	50.1498	730.5201	-0.0592	0.0182	-0.0073	-0.0462	0.0165	0.9585
15.8926	-1.3461	-3.639	-0.1355	1.1818	-0.32804	-3.7213	-8.2502	716.9675	-46.0544	235.3745	49.713	719.2216	-0.0592	0.0182	-0.0073	-0.0462	0.0165	0.9585
15.9145	-1.3847	-2.5988	-0.071865	0.84228	-0.40771	-2.7222	-7.8377	712.0523	-45.8799	232.5275	48.7718	714.2172	-0.0592	0.0182	-0.0073	-0.0462	0.0165	0.9585
15.9364	-1.3224	-1.6515	-0.019762	0.53627	-0.44607	-1.7951	-7.7822	715.6857	-44.8906	232.8364	47.1999	717.606	-0.0592	0.0182	-0.0073	-0.0462	0.0165	0.9585
15.9584	-1.212	-0.88766	0.019184	0.28882	-0.45616	-1.0333	-7.9817	728.7326	-43.1223	236.6296	45.0042	730.0853	-0.0592	0.0182	-0.0073	-0.0462	0.0165	0.9585
15.9803	-1.0868	-0.32848	0.044185	0.10466	-0.44614	-0.46336	-8.3255	750.3928	-40.7498	243.6213	42.3131	750.7524	-0.0592	0.0182	-0.0073	-0.0462	0.0165	0.9585
16.0022	-0.96702	0.045714	0.058356	-0.023205	-0.4239	-0.073157	-8.714	778.2931	-38.0393	252.9526	39.3389	777.2022	-0.0592	0.0182	-0.0073	-0.0462	0.0165	0.9585
16.0241	-0.86513	0.2754	0.066781	-0.10695	-0.39685	0.17361	-9.0656	808.8979	-35.3071	263.3473	36.3485	805.9302	-0.0592	0.0182	-0.0073	-0.0462	0.0165	0.9585
16.0461	-0.78572	0.40122	0.072347	-0.15818	-0.36846	0.31731	-9.3051	838.1687	-32.8623	273.354	33.6078	832.975	-0.0592	0.0182	-0.0073	-0.0462	0.0165	0.9585
16.068	-0.72775	0.4543	0.077634	-0.18566	-0.34282	0.38861	-9.3553	862.3009	-30.9353	281.6135	31.3161	854.6311	-0.0592	0.0182	-0.0073	-0.0462	0.0165	0.9585
16.0899	-0.69038	0.45516	0.085281	-0.19409	-0.32633	0.40414	-9.1582	878.3331	-29.6369	287.0789	29.5717	868.042	-0.0592	0.0182	-0.0073	-0.0462	0.0165	0.9585
